<svg xmlns="http://www.w3.org/2000/svg" viewBox="0 0 393.86 123.98"><defs><style>.cls-1,.cls-3,.cls-5,.cls-6{fill:#ffb101;}.cls-1,.cls-2{stroke:#ffb101;stroke-miterlimit:10;}.cls-2{fill:none;stroke-width:6px;}.cls-4,.cls-5,.cls-6{isolation:isolate;}.cls-5,.cls-6{font-size:48px;font-family:AirbnbCerealApp-Bold, Airbnb Cereal App;font-weight:700;}.cls-6{letter-spacing:0.01em;}</style></defs><title>Fichier 1</title><g id="Calque_2" data-name="Calque 2"><g id="Calque_1-2" data-name="Calque 1"><path class="cls-1" d="M92,82.64c-.5-1.19-1-2.49-1.5-3.58-.8-1.79-1.6-3.49-2.3-5.08l-.1-.1c-6.9-14.94-14.3-30.07-22.1-45l-.3-.6c-.8-1.49-1.6-3.08-2.4-4.68a28.11,28.11,0,0,0-3.6-5.47A16.14,16.14,0,0,0,47,12a16.79,16.79,0,0,0-12.8,6,33.77,33.77,0,0,0-3.6,5.47c-.8,1.6-1.6,3.19-2.4,4.68l-.3.6c-7.7,14.94-15.2,30.07-22.1,45l-.1.2C5,75.52,4.2,77.22,3.4,79c-.5,1.09-1,2.29-1.5,3.58A22.26,22.26,0,0,0,.7,93.35a21.32,21.32,0,0,0,21.1,18.12,25.06,25.06,0,0,0,2.6-.2,26.66,26.66,0,0,0,10-3.38c4.1-2.29,8-5.58,12.4-10.36a52.72,52.72,0,0,0,12.4,10.36,26.66,26.66,0,0,0,10,3.38,25.06,25.06,0,0,0,2.6.2,20.63,20.63,0,0,0,8.1-1.59,21.17,21.17,0,0,0,13-16.53A18.74,18.74,0,0,0,92,82.64ZM46.9,87.82C41.5,81.05,38,74.68,36.8,69.3a16,16,0,0,1-.3-6.08A9.67,9.67,0,0,1,38.1,59a10.62,10.62,0,0,1,8.8-4.38A10.22,10.22,0,0,1,55.7,59a9.67,9.67,0,0,1,1.6,4.18A16,16,0,0,1,57,69.3C55.8,74.58,52.3,81,46.9,87.82ZM58.19,99.65A62,62,0,0,1,51.1,92.9c6.6-8.07,10.6-15.44,12.1-22a24.85,24.85,0,0,0,.5-8.46A16,16,0,0,0,61,55.67,16.86,16.86,0,0,0,46.9,48.6a17.12,17.12,0,0,0-14.1,7.07,16,16,0,0,0-2.7,6.77,20.66,20.66,0,0,0,.5,8.46c1.5,6.57,5.6,14,12.1,22.11a45.16,45.16,0,0,1-11.4,9.66,20,20,0,0,1-7.6,2.59,16.15,16.15,0,0,1-7.6-1A14.84,14.84,0,0,1,7,92.61a16.42,16.42,0,0,1,.9-7.77,33.55,33.55,0,0,1,1.3-3.18c.7-1.6,1.5-3.29,2.3-5l.1-.2c6.9-14.84,14.3-30,22-44.71l.3-.6c.8-1.49,1.6-3.09,2.4-4.58a22,22,0,0,1,2.8-4.38A10.51,10.51,0,0,1,53.93,21a9.94,9.94,0,0,1,1.17,1.17,22,22,0,0,1,2.8,4.38c.8,1.49,1.6,3.09,2.4,4.58l.3.6c7.6,14.83,15,30,21.9,44.81v.1c.8,1.59,1.5,3.38,2.3,5,.5,1.19,1,2.19,1.3,3.18a16.62,16.62,0,0,1,.7,7.67,14.84,14.84,0,0,1-9.1,11.65,15.3,15.3,0,0,1-7.6,1,20,20,0,0,1-7.6-2.59,31.6,31.6,0,0,1-4.31-2.91"/><path class="cls-2" d="M31,105.05A16,16,0,0,0,47,121"/><path class="cls-2" d="M62,105.05A16,16,0,0,1,46,121"/><path class="cls-2" d="M59.18,104.43A16.05,16.05,0,0,1,47,110"/><path class="cls-2" d="M35,104.43A16.05,16.05,0,0,0,47.18,110"/><path class="cls-3" d="M38,15.06a57.13,57.13,0,0,0-6.56-9.25C29,3.07,26.55.21,22.69,0s-3.72,5.61,0,5.8c2,.1,4.69,4.09,5.84,5.52A49.86,49.86,0,0,1,33,18C34.86,21.22,39.87,18.31,38,15.06Z"/><path class="cls-3" d="M59.19,18a49.89,49.89,0,0,1,4.46-6.66c1.17-1.45,3.81-5.41,5.84-5.51,3.71-.2,3.73-6,0-5.8s-6.35,3.05-8.75,5.8a56,56,0,0,0-6.56,9.24c-1.86,3.25,3.15,6.17,5,2.93Z"/><g class="cls-4"><text class="cls-5" transform="translate(116 87.98)">Err</text><text class="cls-6" transform="translate(182.77 87.98)">B</text><text class="cls-5" transform="translate(213.25 87.98)">e</text><text class="cls-5" transform="translate(242.09 87.98)">eN</text><text class="cls-6" transform="translate(306.32 87.98)">B</text><text class="cls-5" transform="translate(336.8 87.98)">e</text><text class="cls-5" transform="translate(365.64 87.98)">e</text></g></g></g></svg>