<svg id="Calque_1" data-name="Calque 1" xmlns="http://www.w3.org/2000/svg" viewBox="0 0 278.25 180.61"><defs><style>.cls-1,.cls-3,.cls-4{fill:#ffb101;}.cls-1,.cls-2{stroke:#ffb101;stroke-miterlimit:10;}.cls-2{fill:none;stroke-width:6px;}.cls-4{font-size:48px;font-family:AirbnbCerealApp-ExtraBold, Airbnb Cereal App;font-weight:700;}.cls-5{letter-spacing:0.01em;}.cls-6{letter-spacing:0em;}.cls-7{letter-spacing:0em;}.cls-8{letter-spacing:0em;}</style></defs><title>logo-full</title><path class="cls-1" d="M524,394.66c-.5-1.19-1-2.49-1.5-3.58-.8-1.79-1.6-3.49-2.3-5.08l-.1-.1c-6.9-14.94-14.3-30.07-22.1-45l-.3-.6c-.8-1.49-1.6-3.08-2.4-4.68a28.57,28.57,0,0,0-3.6-5.47A16.16,16.16,0,0,0,479,324a16.8,16.8,0,0,0-12.8,6,34.27,34.27,0,0,0-3.6,5.47c-.8,1.6-1.6,3.19-2.4,4.68l-.3.6c-7.7,14.94-15.2,30.07-22.1,45l-.1.2c-.7,1.59-1.5,3.29-2.3,5.08-.5,1.09-1,2.29-1.5,3.58a22.3,22.3,0,0,0-1.2,10.76,21.18,21.18,0,0,0,13,16.53,20.7,20.7,0,0,0,8.1,1.59,22.75,22.75,0,0,0,2.6-.2,26.55,26.55,0,0,0,10-3.38c4.1-2.29,8-5.58,12.4-10.36a52.51,52.51,0,0,0,12.4,10.36,26.55,26.55,0,0,0,10,3.38,22.75,22.75,0,0,0,2.6.2,20.36,20.36,0,0,0,8.1-1.59,21.14,21.14,0,0,0,13-16.53A18.76,18.76,0,0,0,524,394.66Zm-45.1,5.18c-5.4-6.77-8.9-13.14-10.1-18.52a16,16,0,0,1-.3-6.08,9.67,9.67,0,0,1,1.6-4.18,10.63,10.63,0,0,1,8.8-4.38,10.25,10.25,0,0,1,8.8,4.38,9.67,9.67,0,0,1,1.6,4.18,15.94,15.94,0,0,1-.3,6.08C487.8,386.6,484.3,393,478.9,399.84Zm11.29,11.83a60.69,60.69,0,0,1-7.09-6.75c6.6-8.07,10.6-15.44,12.1-22a24.82,24.82,0,0,0,.5-8.46,16.1,16.1,0,0,0-2.7-6.77,16.88,16.88,0,0,0-14.1-7.07,17.13,17.13,0,0,0-14.1,7.07,16.1,16.1,0,0,0-2.7,6.77,20.57,20.57,0,0,0,.5,8.46c1.5,6.57,5.6,14,12.1,22.11a44.87,44.87,0,0,1-11.4,9.66,19.81,19.81,0,0,1-7.6,2.59,16,16,0,0,1-7.6-1,14.8,14.8,0,0,1-9.1-11.65,16.43,16.43,0,0,1,.9-7.77c.3-1,.8-2,1.3-3.18.7-1.6,1.5-3.29,2.3-5l.1-.2c6.9-14.84,14.3-30,22-44.71l.3-.6c.8-1.49,1.6-3.09,2.4-4.58a21.81,21.81,0,0,1,2.8-4.38,10.52,10.52,0,0,1,16,0,21.81,21.81,0,0,1,2.8,4.38c.8,1.49,1.6,3.09,2.4,4.58l.3.6c7.6,14.83,15,30,21.9,44.81v.1c.8,1.59,1.5,3.38,2.3,5,.5,1.19,1,2.19,1.3,3.18a16.77,16.77,0,0,1,.7,7.67,14.8,14.8,0,0,1-9.1,11.65,15.14,15.14,0,0,1-7.6,1,19.81,19.81,0,0,1-7.6-2.59,31.12,31.12,0,0,1-4.31-2.91" transform="translate(-344 -312.02)"/><path class="cls-2" d="M463,417.07A16,16,0,0,0,479,433" transform="translate(-344 -312.02)"/><path class="cls-2" d="M494,417.07A16,16,0,0,1,478,433" transform="translate(-344 -312.02)"/><path class="cls-2" d="M491.18,416.45a16,16,0,0,1-12.18,5.6" transform="translate(-344 -312.02)"/><path class="cls-2" d="M491.18,415.45" transform="translate(-344 -312.02)"/><path class="cls-2" d="M467,416.45a16,16,0,0,0,12.18,5.6" transform="translate(-344 -312.02)"/><path class="cls-3" d="M470,327.08a57.58,57.58,0,0,0-6.56-9.25c-2.4-2.74-4.89-5.6-8.75-5.8s-3.72,5.61,0,5.8c2,.1,4.69,4.09,5.84,5.52A50.44,50.44,0,0,1,465,330c1.86,3.24,6.87.33,5-2.92Z" transform="translate(-344 -312.02)"/><path class="cls-3" d="M491.19,330a50.55,50.55,0,0,1,4.46-6.66c1.17-1.45,3.81-5.41,5.84-5.51,3.71-.2,3.73-6,0-5.8s-6.35,3.05-8.75,5.8a57.05,57.05,0,0,0-6.56,9.24c-1.86,3.25,3.15,6.17,5,2.93Z" transform="translate(-344 -312.02)"/><text class="cls-4" transform="translate(0 166.98)">Err<tspan class="cls-5" x="66.77" y="0">B</tspan><tspan class="cls-6" x="97.25" y="0">e</tspan><tspan x="126.09" y="0">eN</tspan><tspan class="cls-5" x="190.32" y="0">B</tspan><tspan class="cls-7" x="220.8" y="0">e</tspan><tspan class="cls-8" x="249.64" y="0">e</tspan></text><text x="-344" y="-312.02"></text></svg>