<svg xmlns="http://www.w3.org/2000/svg" viewBox="0 0 93.82 123.98"><defs><style>.cls-1,.cls-2,.cls-3{fill:#fff;}.cls-1,.cls-2{stroke:#fff;stroke-miterlimit:10;}.cls-2{stroke-width:6px;}</style></defs><title>Fichier 2</title><g id="Calque_2" data-name="Calque 2"><g id="Calque_1-2" data-name="Calque 1"><path class="cls-1" d="M92,82.64c-.5-1.19-1-2.49-1.5-3.58-.8-1.8-1.6-3.49-2.3-5.08l-.1-.1c-6.9-14.94-14.3-30.07-22.1-45l-.3-.6c-.8-1.49-1.6-3.09-2.4-4.68a28.94,28.94,0,0,0-3.6-5.48A16.18,16.18,0,0,0,47,11.94a16.8,16.8,0,0,0-12.8,6,34.27,34.27,0,0,0-3.6,5.47c-.8,1.6-1.6,3.19-2.4,4.68l-.3.6c-7.7,14.94-15.2,30.07-22.1,45l-.1.2C5,75.47,4.21,77.16,3.41,79c-.5,1.09-1,2.29-1.5,3.58A22.3,22.3,0,0,0,.71,93.3a21.19,21.19,0,0,0,13,16.53,20.7,20.7,0,0,0,8.1,1.59,22.75,22.75,0,0,0,2.6-.2,26.4,26.4,0,0,0,10-3.39c4.1-2.29,8-5.57,12.4-10.35a52.44,52.44,0,0,0,12.4,10.35,26.4,26.4,0,0,0,10,3.39,22.75,22.75,0,0,0,2.6.2,20.36,20.36,0,0,0,8.1-1.59,21.14,21.14,0,0,0,13-16.53A18.76,18.76,0,0,0,92,82.64Zm-45.1,5.18c-5.4-6.77-8.9-13.14-10.1-18.52a16,16,0,0,1-.3-6.08A9.67,9.67,0,0,1,38.11,59a10.63,10.63,0,0,1,8.8-4.38A10.25,10.25,0,0,1,55.71,59a9.67,9.67,0,0,1,1.6,4.18A15.94,15.94,0,0,1,57,69.3C55.81,74.58,52.31,81,46.91,87.82ZM58.19,99.65a61.52,61.52,0,0,1-7.08-6.75c6.6-8.07,10.6-15.44,12.1-22a24.83,24.83,0,0,0,.5-8.46A16.1,16.1,0,0,0,61,55.66a16.85,16.85,0,0,0-14.1-7.07,17.11,17.11,0,0,0-14.1,7.07,16.1,16.1,0,0,0-2.7,6.77,20.57,20.57,0,0,0,.5,8.46c1.5,6.57,5.6,14,12.1,22.11a44.87,44.87,0,0,1-11.4,9.66,19.81,19.81,0,0,1-7.6,2.59,16.12,16.12,0,0,1-7.6-1A14.8,14.8,0,0,1,7,92.6a16.43,16.43,0,0,1,.9-7.77c.3-1,.8-2,1.3-3.18.7-1.6,1.5-3.29,2.3-5l.1-.2c6.9-14.84,14.3-30,22-44.71l.3-.6c.8-1.49,1.6-3.09,2.4-4.58a21.81,21.81,0,0,1,2.8-4.38,10.52,10.52,0,0,1,16,0,21.81,21.81,0,0,1,2.8,4.38c.8,1.49,1.6,3.09,2.4,4.58l.3.6c7.6,14.83,15,30,21.9,44.81v.1c.8,1.59,1.5,3.38,2.3,5,.5,1.19,1,2.19,1.3,3.18a16.77,16.77,0,0,1,.7,7.67,14.8,14.8,0,0,1-9.1,11.65,15.25,15.25,0,0,1-7.6,1,19.81,19.81,0,0,1-7.6-2.59,31.8,31.8,0,0,1-4.32-2.91"/><path class="cls-2" d="M31,105.05A16,16,0,0,0,47,121"/><path class="cls-2" d="M62,105.05A16,16,0,0,1,46,121"/><path class="cls-2" d="M59.19,104.43A16,16,0,0,1,47,110"/><path class="cls-2" d="M35,104.43A16,16,0,0,0,47.19,110"/><path class="cls-3" d="M35.5,16.52a51.46,51.46,0,0,0-9-11.68c-1.06-1-2.36-2.08-3.84-1.93"/><path class="cls-3" d="M38,15.06a57.13,57.13,0,0,0-6.56-9.25C29,3.07,26.54.21,22.69,0s-3.72,5.61,0,5.8c2,.1,4.69,4.09,5.84,5.51A51.22,51.22,0,0,1,33,18c1.85,3.24,6.87.32,5-2.92Z"/><path class="cls-3" d="M56.69,16.51a50.84,50.84,0,0,1,9-11.67c1.06-1,2.36-2.09,3.84-1.94"/><path class="cls-3" d="M59.19,18a50.62,50.62,0,0,1,4.47-6.66c1.17-1.45,3.81-5.41,5.84-5.52,3.71-.19,3.73-6,0-5.8s-6.35,3.06-8.75,5.81a56.44,56.44,0,0,0-6.56,9.24c-1.86,3.25,3.15,6.17,5,2.93Z"/></g></g></svg>